<?xml version="1.0" encoding="utf-8"?>
<!-- Generator: Adobe Illustrator 22.1.0, SVG Export Plug-In . SVG Version: 6.00 Build 0)  -->
<svg version="1.1" id="Calque_1" xmlns="http://www.w3.org/2000/svg" xmlns:xlink="http://www.w3.org/1999/xlink" x="0px" y="0px"
	 viewBox="0 0 324.1 246.6" style="enable-background:new 0 0 324.1 246.6;" xml:space="preserve">
<style type="text/css">
	.st0{fill:#CCCCCC;}
	.st1{fill:#F9D7DD;}
	.st2{fill:#3B3735;}
	.st3{fill:#FFFFFF;}
</style>
<g>
	<path class="st0" d="M323.9,95.9c1.8-10.7-8.3-19.3-24.2,2.9c-9.9-15.6-30.8-50.7-27.2-68.8c12.5-62.8-25.2-6.9-41.6-11.3
		c-31.7-8.5-63.8,2.1-79.4,6.6c-1.7,0.5-3.2,0.1-4.4-1.2c-27.2-29.2-33.9-16.9-32.7-8c2.4,18.2,10.6,27.4,3,36.2
		C101.5,70.9,95.9,86,92.1,95.1c0,0-3.9-5.3-7.6-8.2c-22.7-17.7-1.4,36.7-3.6,51.1c-6,38.3-1,55.7,2.3,70.4
		c-72.3-43.5-86.7-116-58.3-87.1c14.4,14.6,17.8,3.2,16.7-2.5c-1.7-8.9-3.6-13-3.2-19.5c1-15.3,17.8-20.1,17.4,27.3
		c-0.1,14.5,8.8,11.3,10.2,6c13.8-54.4-38.4-77-37.6-23.4c-36-27.9-47.4,35.2,24,92.2c54.4,43.5,93,47.8,181.2,44.2
		c127.2-5.3,73.2-91,80.8-119.3C318.3,112.4,322.7,102.9,323.9,95.9z"/>
	<g>
		<path class="st1" d="M139.9,26.2c-33.1-29.9-16.4,17.5-7.8,13.7C139,36.8,145.6,31.3,139.9,26.2z"/>
		<path class="st1" d="M260.6,12.5c-20,11.2-15.1,16.6-8.3,20.7c8.8,5.4,11.2,1.6,13.7-6.7C271.1,9.6,263.4,10.9,260.6,12.5z"/>
	</g>
	<g>
		<g>
			<path class="st2" d="M107.2,85.7c0.3-0.2,0.8-0.1,1.2-0.1c4.2,0.3,8.3,0.8,12.3,2.1c1.8,0.6,3.5,1.3,5,2.3
				c0.5,0.3,0.9,0.7,1.3,1.2c0.2,0.2,0.2,0.7,0.1,0.8c-0.2,0.2-0.6,0.2-0.9,0.3c-0.2,0-0.3-0.1-0.5-0.2c-4.4-2.5-9.3-3.3-14.2-3.9
				c-1.2-0.1-2.4-0.4-3.6-0.6c-0.3,0-0.6-0.1-0.8-0.2c-0.3-0.3-0.6-0.6-0.6-0.9C106.5,86.2,106.8,85.8,107.2,85.7z"/>
			<path class="st2" d="M92.5,105.5c-0.4,0.1-0.9,0.2-1.3,0.3c-0.6,0.1-1.1,0-1.3-0.6c-0.2-0.7,0.3-1,0.8-1.2
				c0.1-0.1,0.2-0.1,0.4-0.2c6.7-2.4,13.5-4.5,20.6-5.7c4-0.7,8.1-0.7,12.2,0.4c0.8,0.2,1.5,0.5,2.3,0.9c0.5,0.2,1.1,0.5,0.9,1.2
				c-0.2,0.7-0.8,0.5-1.3,0.6c-0.9-0.2-1.7-0.3-2.5-0.5c-5.7-0.9-11.3-0.3-16.8,1.1C101.7,103,97.1,104.2,92.5,105.5z"/>
			<path class="st2" d="M128.8,108.9c-0.4,0.1-0.7,0.1-1.1,0.1c-3.7,0.2-7.2,1.3-10.6,2.7c-2,0.8-4,1.7-6.1,2.6
				c-0.5,0.2-0.9,0.4-1.4,0.5s-1,0-1.1-0.5c-0.1-0.3,0-0.8,0.2-1.1c0.1-0.2,0.4-0.4,0.6-0.5c4.9-2.9,10.1-5.2,15.9-5.9
				c0.2,0,0.4-0.1,0.7-0.1s0.5,0,0.8,0c0,0,0,0,0-0.1c0.7,0.1,1.4,0.2,2.1,0.4c0.5,0.1,0.9,0.4,0.9,1
				C129.6,108.6,129.2,108.8,128.8,108.9z"/>
			<path class="st2" d="M264,90.2c1.2-1.1,2.3-2.1,3.6-3c2.5-1.7,5.2-2.7,8.1-3.6c1.6-0.5,3.3-0.9,4.9-1.4c0.3-0.1,0.7-0.2,1.2-0.3
				c0.2,0.2,0.7,0.4,0.8,0.8c0.2,0.6-0.3,0.9-0.8,1c-2.2,0.6-4.4,1.3-6.6,1.9c-3.9,1.1-7.4,2.8-10.3,5.5c-0.4,0.4-0.9,1.1-1.4,0.5
				C263,91.2,263.6,90.6,264,90.2z"/>
			<path class="st2" d="M263.3,98.2c0-0.3,0.1-0.7,0.3-0.9c0.3-0.3,0.6-0.5,1-0.7c2-1.1,4.1-1.7,6.3-2.3c4.4-1.1,8.8-1.4,13.4-0.6
				c1.3,0.2,2.7,0.3,4,0.5c1,0.2,1.4,0.5,1.4,1s-0.5,0.8-1.5,0.7c-0.9,0-1.7-0.1-2.6-0.2l0,0c-1.4-0.1-2.9-0.3-4.3-0.4
				c-3.7-0.3-7.4,0.2-10.9,1.2c-1.7,0.5-3.3,1-5,1.6c-0.4,0.1-0.9,0.3-1.3,0.3C263.8,98.5,263.3,98.3,263.3,98.2z"/>
			<path class="st2" d="M299.8,116.7c-0.3,0.5-0.8,0.6-1.8,0.1c-2.4-1.2-4.8-2.5-7.1-3.8c-4-2.3-8.3-4.1-12.7-5.4
				c-2.6-0.7-5.3-1.1-7.9-1.4c-1.7-0.2-3.5-0.3-5.2-0.4c-0.2,0-0.5,0-0.7-0.1s-0.4-0.3-0.4-0.4c0-0.2,0.2-0.6,0.3-0.6
				c0.6-0.2,1.2-0.4,1.8-0.4c1.3,0,2.5,0,3.8,0.1c7-0.1,13.4,2.1,19.4,5.2c3.3,1.7,6.5,3.8,9.8,5.7
				C299.9,115.7,300.1,116.2,299.8,116.7z"/>
		</g>
		<g>
			<g>
				<path class="st2" d="M138.3,80.3c-9,39.7,30.2,58.9,39.2,19.2S147.3,40.6,138.3,80.3z"/>
				<g>
					<path class="st3" d="M158.3,105.9c-2.5,3.4,2.9,7.1,5.4,3.7C166.2,106.2,160.8,102.5,158.3,105.9z"/>
					<path class="st3" d="M146.5,84.3c-5,14.6,17.8,21.8,22.8,7.3C174.4,77,151.5,69.7,146.5,84.3z"/>
				</g>
			</g>
			<g>
				<path class="st2" d="M218.4,82.1c-9,39.7,30.2,58.9,39.2,19.2C266.6,61.6,227.4,42.4,218.4,82.1z"/>
				<g>
					<path class="st3" d="M238.4,107.7c-2.5,3.4,2.9,7.1,5.4,3.7C246.3,108,240.9,104.3,238.4,107.7z"/>
					<path class="st3" d="M226.6,86.1c-5,14.6,17.8,21.8,22.8,7.3C254.5,78.8,231.7,71.6,226.6,86.1z"/>
				</g>
			</g>
		</g>
		<path class="st2" d="M205.4,98.1c-4.1-1.6-5,6.2-10.7,1.5c-5.6-4.7-11.4,0.7-3.1,8.3c1.2,1.1,3.2,2,3.8,3.5
			c0.4,0.9,0.3,2.1,0.3,3.1c0.1,8.2-3.1,36.9-0.1,36.9c4.1,0.1,2.5-33.1,3.3-38.5c0.3-1.9,1.4-2.5,2.8-3.5c0.5-0.4,1-0.8,1.5-1.2
			C212.2,100.8,205.5,98.2,205.4,98.1z"/>
	</g>
	<g>
		<g>
			<path class="st1" d="M246.6,133.9c-18.9,20.7,16.9,43.9,33,28.2C304.6,137.7,267.1,111.5,246.6,133.9z"/>
		</g>
		<g>
			<path class="st1" d="M107.9,158.3c15.3,16.4,52.2-5.2,34.2-26.7C122.6,108.2,84,132.7,107.9,158.3z"/>
		</g>
	</g>
</g>
</svg>
